<svg version="1.1" xmlns="http://www.w3.org/2000/svg" xmlns:xlink="http://www.w3.org/1999/xlink" viewBox="0 0 172 172"><g fill="none" fill-rule="nonzero" stroke="none" stroke-width="1" stroke-linecap="butt" stroke-linejoin="miter" stroke-miterlimit="10" stroke-dasharray="" stroke-dashoffset="0" font-family="none" font-weight="none" font-size="none" text-anchor="none" style="mix-blend-mode: normal"><path d="M0,172v-172h172v172z" fill="none"></path><path d="M86,172c-47.49649,0 -86,-38.50351 -86,-86v0c0,-47.49649 38.50351,-86 86,-86v0c47.49649,0 86,38.50351 86,86v0c0,47.49649 -38.50351,86 -86,86z" fill="#15c779"></path><g fill="#ffffff"><path d="M43,30.1c-7.1466,0 -12.9,5.7534 -12.9,12.9v25.8c0,7.1466 5.7534,12.9 12.9,12.9h25.8c7.1466,0 12.9,-5.7534 12.9,-12.9v-25.8c0,-7.1466 -5.7534,-12.9 -12.9,-12.9zM103.2,30.1c-7.1466,0 -12.9,5.7534 -12.9,12.9v25.8c0,7.1466 5.7534,12.9 12.9,12.9h25.8c7.1466,0 12.9,-5.7534 12.9,-12.9v-25.8c0,-7.1466 -5.7534,-12.9 -12.9,-12.9zM43,90.3c-7.1466,0 -12.9,5.7534 -12.9,12.9v25.8c0,7.1466 5.7534,12.9 12.9,12.9h25.8c7.1466,0 12.9,-5.7534 12.9,-12.9v-25.8c0,-7.1466 -5.7534,-12.9 -12.9,-12.9zM116.1,90.3c-14.24895,0 -25.8,11.55105 -25.8,25.8c0,14.24895 11.55105,25.8 25.8,25.8c14.24895,0 25.8,-11.55105 25.8,-25.8c0,-14.24895 -11.55105,-25.8 -25.8,-25.8z"></path></g></g></svg>