<svg version="1.1" xmlns="http://www.w3.org/2000/svg" xmlns:xlink="http://www.w3.org/1999/xlink" viewBox="0 0 172 172"><g fill="none" fill-rule="nonzero" stroke="none" stroke-width="1" stroke-linecap="butt" stroke-linejoin="miter" stroke-miterlimit="10" stroke-dasharray="" stroke-dashoffset="0" font-family="none" font-weight="none" font-size="none" text-anchor="none" style="mix-blend-mode: normal"><path d="M0,172v-172h172v172z" fill="none"></path><path d="M86,172c-47.49649,0 -86,-38.50351 -86,-86v0c0,-47.49649 38.50351,-86 86,-86v0c47.49649,0 86,38.50351 86,86v0c0,47.49649 -38.50351,86 -86,86z" fill="#15c779"></path><g fill="#ffffff"><path d="M50.525,39.8825c-5.89594,0 -10.6425,4.74656 -10.6425,10.6425v21.285c0,5.89595 4.74656,10.6425 10.6425,10.6425h21.285c5.89595,0 10.6425,-4.74655 10.6425,-10.6425v-21.285c0,-5.89594 -4.74655,-10.6425 -10.6425,-10.6425zM100.19,39.8825c-5.89594,0 -10.6425,4.74656 -10.6425,10.6425v21.285c0,5.89595 4.74656,10.6425 10.6425,10.6425h21.285c5.89594,0 10.6425,-4.74655 10.6425,-10.6425v-21.285c0,-5.89594 -4.74656,-10.6425 -10.6425,-10.6425zM50.525,89.5475c-5.89594,0 -10.6425,4.74656 -10.6425,10.6425v21.285c0,5.89594 4.74656,10.6425 10.6425,10.6425h21.285c5.89595,0 10.6425,-4.74656 10.6425,-10.6425v-21.285c0,-5.89594 -4.74655,-10.6425 -10.6425,-10.6425zM110.8325,89.5475c-11.75538,0 -21.285,9.52962 -21.285,21.285c0,11.75538 9.52962,21.285 21.285,21.285c11.75538,0 21.285,-9.52962 21.285,-21.285c0,-11.75538 -9.52962,-21.285 -21.285,-21.285z"></path></g></g></svg>