<svg version="1.1" xmlns="http://www.w3.org/2000/svg" xmlns:xlink="http://www.w3.org/1999/xlink" viewBox="0 0 172 172"><g fill="none" fill-rule="nonzero" stroke="none" stroke-width="1" stroke-linecap="butt" stroke-linejoin="miter" stroke-miterlimit="10" stroke-dasharray="" stroke-dashoffset="0" font-family="none" font-weight="none" font-size="none" text-anchor="none" style="mix-blend-mode: normal"><path d="M0,172v-172h172v172z" fill="none"></path><path d="M86,172c-47.49649,0 -86,-38.50351 -86,-86v0c0,-47.49649 38.50351,-86 86,-86v0c47.49649,0 86,38.50351 86,86v0c0,47.49649 -38.50351,86 -86,86z" fill="#15c779"></path><g fill="#ffffff"><path d="M140.39352,107.81037l-5.43997,-38.07978c-2.46878,-16.5361 -16.62785,-28.80114 -33.34701,-28.88623h-31.00782c-16.80174,-0.02239 -31.08346,12.26869 -33.56461,28.88623l-5.43997,38.07978c-1.20552,7.35141 1.68108,14.77693 7.53533,19.38392c5.85425,4.60699 13.75029,5.66686 20.6122,2.76674c6.86191,-2.90013 11.60449,-9.30159 12.38024,-16.71069v-1.63199c0.57633,-4.79603 4.63505,-8.41156 9.46555,-8.43195h7.50716c4.83049,0.02039 8.88922,3.63592 9.46555,8.43195v1.63199c1.21257,10.29083 9.92906,18.04921 20.29108,18.0607h0.4352c6.10887,0.26421 12.01558,-2.21844 16.10137,-6.76756c4.08579,-4.54912 5.92211,-10.68758 5.00571,-16.7331zM68.80353,80.61053v0v0c0,3.00441 -2.43556,5.43997 -5.43997,5.43997c-3.00441,0 -5.43997,-2.43556 -5.43997,-5.43997v0v0c-3.00441,0 -5.43997,-2.43556 -5.43997,-5.43997c0,-3.00441 2.43556,-5.43997 5.43997,-5.43997v0v0c0,-3.00441 2.43556,-5.43997 5.43997,-5.43997c3.00441,0 5.43997,2.43556 5.43997,5.43997v0v0c3.00441,0 5.43997,2.43556 5.43997,5.43997c0,3.00441 -2.43556,5.43997 -5.43997,5.43997zM114.33607,80.61053v0v0c0,3.00441 -2.43556,5.43997 -5.43997,5.43997c-3.00441,0 -5.43997,-2.43556 -5.43997,-5.43997v0v0c-3.00441,0 -5.43997,-2.43556 -5.43997,-5.43997c0,-3.00441 2.43556,-5.43997 5.43997,-5.43997v0v0c0,-3.00441 2.43556,-5.43997 5.43997,-5.43997c3.00441,0 5.43997,2.43556 5.43997,5.43997v0v0c3.00441,0 5.43997,2.43556 5.43997,5.43997c0,3.00441 -2.43556,5.43997 -5.43997,5.43997z"></path></g></g></svg>