<svg version="1.1" xmlns="http://www.w3.org/2000/svg" xmlns:xlink="http://www.w3.org/1999/xlink" viewBox="0 0 226 226"><g fill="none" fill-rule="nonzero" stroke="none" stroke-width="1" stroke-linecap="butt" stroke-linejoin="miter" stroke-miterlimit="10" stroke-dasharray="" stroke-dashoffset="0" font-family="none" font-weight="none" font-size="none" text-anchor="none" style="mix-blend-mode: normal"><path d="M0,226v-226h226v226z" fill="none"></path><path d="M113,226c-62.40818,0 -113,-50.59182 -113,-113v0c0,-62.40818 50.59182,-113 113,-113v0c62.40818,0 113,50.59182 113,113v0c0,62.40818 -50.59182,113 -113,113z" fill="#15c779"></path><g id="original-icon" fill="#ffffff"><path d="M126.38806,55.61013l-39.0048,110.5136l12.189,4.26615l39.0048,-110.5136zM64.02101,75.2141l-28.23785,33.62133l-3.45355,4.16457l3.45355,4.16457l28.23785,33.7229l10.05593,-8.32915l-24.7843,-29.55832l24.68272,-29.45675zM161.93931,75.2141l-9.95435,8.32915l24.68272,29.45675l-24.68272,29.45675l10.05593,8.32915l28.0347,-33.62132l3.45355,-4.16457l-3.45355,-4.16457z"></path></g></g></svg>