<svg version="1.1" xmlns="http://www.w3.org/2000/svg" xmlns:xlink="http://www.w3.org/1999/xlink" viewBox="0 0 172 172"><g fill="none" fill-rule="nonzero" stroke="none" stroke-width="1" stroke-linecap="butt" stroke-linejoin="miter" stroke-miterlimit="10" stroke-dasharray="" stroke-dashoffset="0" font-family="none" font-weight="none" font-size="none" text-anchor="none" style="mix-blend-mode: normal"><path d="M0,172v-172h172v172z" fill="none"></path><path d="M86,172c-47.49649,0 -86,-38.50351 -86,-86v0c0,-47.49649 38.50351,-86 86,-86v0c47.49649,0 86,38.50351 86,86v0c0,47.49649 -38.50351,86 -86,86z" fill="#15c779"></path><g fill="#ffffff"><path d="M45.6875,35.20625c-5.805,0 -10.48125,4.67625 -10.48125,10.48125v8.0625v3.225c0,1.37063 1.04812,2.41875 2.41875,2.41875h96.75c1.37062,0 2.41875,-1.04812 2.41875,-2.41875v-11.2875c0,-5.805 -4.67625,-10.48125 -10.48125,-10.48125zM48.9125,44.88125h3.225c1.37063,0 2.41875,1.04812 2.41875,2.41875c0,1.37063 -1.04812,2.41875 -2.41875,2.41875h-3.225c-1.37063,0 -2.41875,-1.04812 -2.41875,-2.41875c0,-1.37063 1.04812,-2.41875 2.41875,-2.41875zM61.8125,44.88125h3.225c1.37063,0 2.41875,1.04812 2.41875,2.41875c0,1.37063 -1.04812,2.41875 -2.41875,2.41875h-3.225c-1.37063,0 -2.41875,-1.04812 -2.41875,-2.41875c0,-1.37063 1.04812,-2.41875 2.41875,-2.41875zM95.675,44.88125h27.4125c1.37062,0 2.41875,1.04812 2.41875,2.41875c0,1.37063 -1.04813,2.41875 -2.41875,2.41875h-27.4125c-1.37062,0 -2.41875,-1.04812 -2.41875,-2.41875c0,-1.37063 1.04812,-2.41875 2.41875,-2.41875zM37.625,64.23125c-1.37063,0 -2.41875,1.04812 -2.41875,2.41875v59.6625c0,5.805 4.67625,10.48125 10.48125,10.48125h80.625c5.805,0 10.48125,-4.67625 10.48125,-10.48125v-59.6625c0,-1.37062 -1.04812,-2.41875 -2.41875,-2.41875zM64.23125,85.11344c1.12875,0 2.09657,0.72468 2.33844,1.85343l4.11156,16.44781l4.11156,-16.44781c0.3225,-1.29 1.61219,-2.09562 2.90219,-1.77312c1.29,0.40313 2.09719,1.6925 1.77469,2.9825l-6.45,25.8c-0.24187,1.04813 -1.20969,1.855 -2.33844,1.855c-1.12875,0 -2.09657,-0.72625 -2.33844,-1.855l-4.11156,-16.36593l-4.11156,16.44781c-0.24187,1.04812 -1.20969,1.85343 -2.33844,1.85343c-1.12875,0 -2.09657,-0.72468 -2.33844,-1.85343l-6.45,-25.8c-0.3225,-1.29 0.48469,-2.58126 1.77469,-2.90376c1.29,-0.3225 2.57969,0.48469 2.90219,1.77469l4.11156,16.28562l4.11156,-16.44781c0.24188,-1.04812 1.20969,-1.85343 2.33844,-1.85343zM86,85.19375h11.2875c1.37063,0 2.41875,1.04813 2.41875,2.41875c0,1.37063 -1.04813,2.41875 -2.41875,2.41875h-8.86875v8.0625h8.86875c1.37063,0 2.41875,1.04812 2.41875,2.41875c0,1.37063 -1.04813,2.41875 -2.41875,2.41875h-8.86875v8.0625h8.86875c1.37063,0 2.41875,1.04812 2.41875,2.41875c0,1.37063 -1.04813,2.41875 -2.41875,2.41875h-11.2875c-1.37063,0 -2.41875,-1.04812 -2.41875,-2.41875v-25.8c0,-1.37062 1.04813,-2.41875 2.41875,-2.41875zM106.15625,85.19375h5.64375c4.43438,0 8.0625,3.62813 8.0625,8.0625c0,1.69312 -0.565,3.305 -1.45188,4.595c2.82187,1.69312 4.67688,4.7575 4.67688,8.305c0,5.32125 -4.35375,9.675 -9.675,9.675h-7.25625c-1.37063,0 -2.41875,-1.04812 -2.41875,-2.41875v-25.8c0,-1.37062 1.04812,-2.41875 2.41875,-2.41875zM108.575,90.03125v6.45h3.225c1.77375,0 3.225,-1.45125 3.225,-3.225c0,-1.77375 -1.45125,-3.225 -3.225,-3.225zM108.575,101.31875v9.675h4.8375c2.66062,0 4.8375,-2.17687 4.8375,-4.8375c0,-2.66063 -2.17688,-4.8375 -4.8375,-4.8375z"></path></g></g></svg>