<?xml version="1.0" encoding="UTF-8"?>
<svg xmlns="http://www.w3.org/2000/svg" xmlns:xlink="http://www.w3.org/1999/xlink" viewBox="0 0 144 144" width="144px" height="144px">
<g id="surface542012">
<path style=" stroke:none;fill-rule:nonzero;fill:rgb(8.235294%,78.039217%,47.450981%);fill-opacity:1;" d="M 72 144 C 32.234375 144 0 111.765625 0 72 C 0 32.234375 32.234375 0 72 0 C 111.765625 0 144 32.234375 144 72 C 144 111.765625 111.765625 144 72 144 Z M 72 144 "/>
<path style=" stroke:none;fill-rule:nonzero;fill:rgb(100%,100%,100%);fill-opacity:1;" d="M 71.691406 38.699219 C 57.871094 38.699219 45.035156 39.683594 37.710938 41.214844 C 37.695312 41.21875 37.679688 41.222656 37.664062 41.226562 C 32.144531 42.464844 26.949219 46.417969 25.855469 52.609375 C 25.851562 52.617188 25.851562 52.625 25.847656 52.632812 C 25.007812 57.625 24.148438 64.128906 24.148438 73.5 C 24.148438 82.855469 25.011719 89.1875 26.074219 94.4375 C 27.195312 100.445312 32.273438 104.519531 37.875 105.773438 C 37.902344 105.78125 37.929688 105.785156 37.957031 105.792969 C 45.601562 107.300781 58.078125 108.300781 71.894531 108.300781 C 85.710938 108.300781 98.191406 107.300781 105.839844 105.792969 C 105.867188 105.785156 105.894531 105.78125 105.921875 105.773438 C 111.441406 104.535156 116.636719 100.582031 117.730469 94.390625 C 117.734375 94.375 117.734375 94.359375 117.738281 94.34375 C 118.566406 89.253906 119.636719 82.757812 119.851562 73.367188 C 119.851562 73.34375 119.851562 73.320312 119.851562 73.296875 C 119.851562 63.902344 118.773438 57.359375 117.726562 52.175781 C 116.613281 46.152344 111.53125 42.070312 105.921875 40.816406 C 105.835938 40.796875 105.75 40.78125 105.660156 40.769531 C 98.199219 39.71875 85.507812 38.699219 71.691406 38.699219 Z M 63.640625 57.191406 C 64.445312 57.175781 65.277344 57.367188 66.0625 57.808594 L 84.773438 68.382812 C 87.929688 70.164062 87.929688 74.664062 84.773438 76.449219 L 66.0625 87.023438 C 62.929688 88.789062 59.03125 86.550781 59.03125 82.984375 L 59.03125 61.839844 C 59.03125 59.164062 61.222656 57.242188 63.640625 57.191406 Z M 63.640625 57.191406 "/>
</g>
</svg>
