<svg id="Solid" height="512" viewBox="0 0 512 512" width="512" xmlns="http://www.w3.org/2000/svg"><path d="m304 128h32v80h-32z"/><path d="m256 208v-80h-46.241l16 80z"/><path d="m464 120v180.887a96.591 96.591 0 0 1 16 11.625v-216.512h-384v16h360a8 8 0 0 1 8 8z"/><path d="m384 128h64v16h-64z"/><path d="m145.441 128h-49.441v32h55.841z"/><path d="m384 192h64v16h-64z"/><path d="m164.642 224h-68.642v32h75.041z"/><path d="m416 288a95.566 95.566 0 0 1 32 5.491v-21.491h-64v21.491a95.566 95.566 0 0 1 32-5.491z"/><path d="m64 344a8.009 8.009 0 0 0 8 8h118.241l-9.6-48h-84.641v24a8 8 0 0 1 -8 8h-24z"/><path d="m195.045 294.431 11.514 57.569h31.682l-4.486-22.431a8 8 0 0 1 7.845-9.569h46.4v-16h-52.8a8 8 0 0 1 -7.845-6.431l-6.4-32a8 8 0 0 1 7.845-9.569h115.2a8 8 0 0 1 8 8v48.512a96.591 96.591 0 0 1 16-11.625v-36.887a8 8 0 0 1 8-8h72v-32h-72a8 8 0 0 1 -8-8v-32a8 8 0 0 1 8-8h72v-16h-72a8 8 0 0 1 -8-8v-24h-16v88a8 8 0 0 1 -8 8h-48a8 8 0 0 1 -8-8v-88h-16v88a8 8 0 0 1 -8 8h-44.8a8 8 0 0 1 -7.845-6.431l-17.914-89.569h-31.682l7.685 38.431a8 8 0 0 1 -7.844 9.569h-65.6v32h75.2a8 8 0 0 1 7.845 6.431l9.6 48a8 8 0 0 1 -7.845 9.569h-84.8v16h91.2a8 8 0 0 1 7.845 6.431z"/><path d="m80 320v-288h-24a24.028 24.028 0 0 0 -24 24v272.019a39.792 39.792 0 0 1 24-8.019z"/><path d="m336 272h-97.441l3.2 16h54.241a8 8 0 0 1 8 8v32a8 8 0 0 1 -8 8h-44.642l3.2 16h70.932a95.722 95.722 0 0 1 10.51-21z"/><path d="m48 344v-6.624a24 24 0 0 0 8 46.624h264a96.231 96.231 0 0 1 1.341-16h-249.341a24.028 24.028 0 0 1 -24-24z"/><path d="m416 304a80 80 0 1 0 80 80 80.091 80.091 0 0 0 -80-80zm40 88h-32v32a8 8 0 0 1 -16 0v-32h-32a8 8 0 0 1 0-16h32v-32a8 8 0 0 1 16 0v32h32a8 8 0 0 1 0 16z"/></svg>