<?xml version="1.0" encoding="iso-8859-1"?>
<!-- Generator: Adobe Illustrator 18.1.1, SVG Export Plug-In . SVG Version: 6.00 Build 0)  -->
<svg version="1.1" id="Capa_1" xmlns="http://www.w3.org/2000/svg" xmlns:xlink="http://www.w3.org/1999/xlink" x="0px" y="0px"
	 viewBox="0 0 611.997 611.997" style="enable-background:new 0 0 611.997 611.997;" xml:space="preserve">
<g>
	<g>
		<path d="M549.255,384.017h-50.692v-50.694c0-21.132-17.134-38.264-38.262-38.264c-21.138,0-38.266,17.132-38.266,38.264v50.694
			h-50.697c-21.13,0-38.262,17.132-38.262,38.264c0,21.134,17.134,38.264,38.262,38.264h50.697v50.697
			c0,21.13,17.13,38.264,38.266,38.264c21.13,0,38.262-17.134,38.262-38.264v-50.697h50.692c21.138,0,38.262-17.13,38.262-38.264
			C587.519,401.151,570.394,384.017,549.255,384.017z"/>
		<path d="M383.77,498.809h-12.432c-42.198,0-76.526-34.33-76.526-76.528s34.328-76.528,76.526-76.528h12.432v-12.43
			c0-42.198,34.33-76.528,76.53-76.528c42.198,0,76.526,34.33,76.526,76.528v12.43h12.428c5.073,0,10.028,0.508,14.827,1.454
			c66.899-77.109,63.762-194.319-9.515-267.606c-37.102-37.1-86.429-57.533-138.896-57.533c-39.544,0-77.476,11.685-109.659,33.39
			c-32.185-21.705-70.117-33.39-109.659-33.39c-52.464,0-101.791,20.433-138.896,57.535
			c-76.609,76.617-76.609,201.284,0.002,277.904l215.831,215.829c2.226,2.222,4.583,4.463,7.009,6.664
			c7.293,6.619,16.501,9.93,25.716,9.93c9.198,0,18.396-3.301,25.684-9.903c2.448-2.216,4.826-4.477,7.069-6.72l46.584-46.582
			c-1.033-5.002-1.577-10.181-1.577-15.482v-12.432H383.77z"/>
	</g>
</g>
<g>
</g>
<g>
</g>
<g>
</g>
<g>
</g>
<g>
</g>
<g>
</g>
<g>
</g>
<g>
</g>
<g>
</g>
<g>
</g>
<g>
</g>
<g>
</g>
<g>
</g>
<g>
</g>
<g>
</g>
</svg>
