<?xml version="1.0" encoding="iso-8859-1"?>
<!-- Generator: Adobe Illustrator 19.0.0, SVG Export Plug-In . SVG Version: 6.00 Build 0)  -->
<svg version="1.1" id="Capa_1" xmlns="http://www.w3.org/2000/svg" xmlns:xlink="http://www.w3.org/1999/xlink" x="0px" y="0px"
	 viewBox="0 0 512.035 512.035" style="enable-background:new 0 0 512.035 512.035;" xml:space="preserve">
<path style="fill:#F44336;" d="M488.502,256.035l22.464-58.592c2.464-6.464,0.544-13.792-4.864-18.176l-48.704-39.488l-9.856-61.984
	c-1.088-6.848-6.464-12.192-13.312-13.28l-61.984-9.856L332.79,5.923c-4.352-5.408-11.84-7.328-18.144-4.864l-58.624,22.496
	L197.43,1.091c-6.496-2.496-13.76-0.512-18.144,4.864l-39.488,48.736l-61.984,9.856c-6.816,1.088-12.192,6.464-13.28,13.28
	l-9.856,61.984L5.942,179.299c-5.376,4.352-7.328,11.68-4.864,18.144l22.464,58.592L1.078,314.627
	c-2.496,6.464-0.512,13.792,4.864,18.144l48.736,39.456l9.856,61.984c1.088,6.848,6.432,12.224,13.28,13.312l61.984,9.856
	l39.488,48.704c4.384,5.44,11.712,7.36,18.176,4.864l58.56-22.432l58.592,22.464c1.856,0.704,3.776,1.056,5.728,1.056
	c4.704,0,9.344-2.08,12.448-5.952l39.456-48.704l61.984-9.856c6.848-1.088,12.224-6.464,13.312-13.312l9.856-61.984l48.704-39.456
	c5.408-4.384,7.328-11.68,4.864-18.144L488.502,256.035z"/>
<g>
	<path style="fill:#FAFAFA;" d="M208.022,224.035c-26.464,0-48-21.536-48-48s21.536-48,48-48s48,21.536,48,48
		S234.486,224.035,208.022,224.035z M208.022,160.035c-8.832,0-16,7.168-16,16s7.168,16,16,16s16-7.168,16-16
		S216.854,160.035,208.022,160.035z"/>
	<path style="fill:#FAFAFA;" d="M304.022,384.035c-26.464,0-48-21.536-48-48s21.536-48,48-48s48,21.536,48,48
		S330.486,384.035,304.022,384.035z M304.022,320.035c-8.8,0-16,7.2-16,16s7.2,16,16,16s16-7.2,16-16
		S312.822,320.035,304.022,320.035z"/>
	<path style="fill:#FAFAFA;" d="M176.022,384.035c-3.232,0-6.464-0.96-9.28-2.976c-7.2-5.152-8.864-15.136-3.712-22.336l160-224
		c5.152-7.2,15.136-8.864,22.336-3.712c7.2,5.12,8.832,15.136,3.712,22.304l-160,224
		C185.91,381.699,181.014,384.035,176.022,384.035z"/>
</g>
<g>
</g>
<g>
</g>
<g>
</g>
<g>
</g>
<g>
</g>
<g>
</g>
<g>
</g>
<g>
</g>
<g>
</g>
<g>
</g>
<g>
</g>
<g>
</g>
<g>
</g>
<g>
</g>
<g>
</g>
</svg>
