<?xml version="1.0" encoding="iso-8859-1"?>
<!-- Generator: Adobe Illustrator 18.0.0, SVG Export Plug-In . SVG Version: 6.00 Build 0)  -->
<!DOCTYPE svg PUBLIC "-//W3C//DTD SVG 1.1//EN" "http://www.w3.org/Graphics/SVG/1.1/DTD/svg11.dtd">
<svg version="1.1" id="Capa_1" xmlns="http://www.w3.org/2000/svg" xmlns:xlink="http://www.w3.org/1999/xlink" x="0px" y="0px"
	 viewBox="0 0 370 370" style="enable-background:new 0 0 370 370;" xml:space="preserve">
<g>
	<path d="M366.85,71.242c-2.842-3.661-7.216-5.802-11.85-5.802H97.836L87.698,37.929c-2.173-5.896-7.791-9.813-14.075-9.813H15
		c-8.284,0-15,6.716-15,15c0,8.284,6.716,15,15,15h48.165l85.384,231.704c2.173,5.897,7.791,9.814,14.075,9.814h147.823
		c8.284,0,15-6.716,15-15c0-8.284-6.716-15-15-15H173.082l-13.572-36.829h160.319c6.852,0,12.832-4.642,14.531-11.279L369.531,84.16
		C370.681,79.671,369.69,74.902,366.85,71.242z M257.856,162.727c5.858,5.858,5.858,15.355,0,21.213
		c-2.929,2.929-6.768,4.393-10.606,4.393s-7.678-1.464-10.606-4.393L223,170.296l-13.644,13.644
		c-2.929,2.929-6.768,4.393-10.606,4.393s-7.678-1.464-10.606-4.393c-5.858-5.858-5.858-15.355,0-21.213l13.643-13.644
		l-13.643-13.643c-5.858-5.858-5.858-15.355,0-21.213c5.857-5.858,15.355-5.858,21.213,0L223,127.87l13.644-13.644
		c5.857-5.858,15.355-5.858,21.213,0c5.858,5.858,5.858,15.355,0,21.213l-13.644,13.643L257.856,162.727z"/>
	<path d="M181.482,303.196c-10.687,0-19.347,8.658-19.347,19.344c0,10.686,8.66,19.344,19.347,19.344
		c10.686,0,19.347-8.659,19.347-19.344C200.829,311.854,192.169,303.196,181.482,303.196z"/>
	<path d="M282.311,303.196c-10.686,0-19.347,8.658-19.347,19.344c0,10.686,8.66,19.344,19.347,19.344s19.342-8.659,19.342-19.344
		C301.653,311.854,292.998,303.196,282.311,303.196z"/>
</g>
<g>
</g>
<g>
</g>
<g>
</g>
<g>
</g>
<g>
</g>
<g>
</g>
<g>
</g>
<g>
</g>
<g>
</g>
<g>
</g>
<g>
</g>
<g>
</g>
<g>
</g>
<g>
</g>
<g>
</g>
</svg>
