<svg id="Capa_1" enable-background="new 0 0 512 512" height="512" viewBox="0 0 512 512" width="512" xmlns="http://www.w3.org/2000/svg"><g><path d="m241 196v-75h-75c-8.284 0-15 6.716-15 15v75h105c-8.284 0-15-6.716-15-15z"/><path d="m496 121h-75v75c0 8.284-6.716 15-15 15s-15-6.716-15-15v-75h-120v75c0 8.284-6.716 15-15 15h30c24.813 0 45 20.187 45 45-.927 254.602 2.121 242.746-2.58 256h167.58c8.284 0 15-6.716 15-15v-361c0-8.284-6.716-15-15-15z"/><path d="m271 90c0-33.084 26.916-60 60-60s60 26.916 60 60v31h30v-31c0-49.626-40.374-90-90-90s-90 40.374-90 90v31h30z"/><path d="m286 241h-270c-8.284 0-15 6.716-15 15v241c0 8.284 6.716 15 15 15h270c8.284 0 15-6.716 15-15v-241c0-8.284-6.716-15-15-15zm-135 150c-41.355 0-75-33.645-75-75 0-8.284 6.716-15 15-15s15 6.716 15 15c0 24.813 20.187 45 45 45s45-20.187 45-45c0-8.284 6.716-15 15-15s15 6.716 15 15c0 41.355-33.645 75-75 75z"/></g></svg>