<?xml version="1.0" encoding="iso-8859-1"?>
<!-- Generator: Adobe Illustrator 18.0.0, SVG Export Plug-In . SVG Version: 6.00 Build 0)  -->
<!DOCTYPE svg PUBLIC "-//W3C//DTD SVG 1.1//EN" "http://www.w3.org/Graphics/SVG/1.1/DTD/svg11.dtd">
<svg version="1.1" id="Capa_1" xmlns="http://www.w3.org/2000/svg" xmlns:xlink="http://www.w3.org/1999/xlink" x="0px" y="0px"
	 viewBox="0 0 404.688 404.688" style="enable-background:new 0 0 404.688 404.688;" xml:space="preserve">
<path d="M404.422,140.687l-20.491-87.259c-0.698-2.972-2.716-5.463-5.478-6.762c-2.762-1.3-5.968-1.267-8.702,0.09l-71.23,35.346
	H106.168l-71.23-35.346c-2.735-1.357-5.94-1.39-8.702-0.09c-2.763,1.299-4.78,3.79-5.478,6.762L0.266,140.687
	c-1.061,4.52,1.128,9.176,5.286,11.242l68.271,33.913v163.131c0,5.523,4.478,10,10,10h237.023c5.522,0,10-4.477,10-10V185.852
	l68.29-33.922C403.294,149.864,405.484,145.207,404.422,140.687z M242.5,232.973h-80.332c-5.522,0-10-4.477-10-10
	c0-5.523,4.478-10,10-10H242.5c5.522,0,10,4.477,10,10C252.5,228.496,248.023,232.973,242.5,232.973z M96.365,169.643l15.43-67.541
	h181.078l15.431,67.541H96.365z"/>
<g>
</g>
<g>
</g>
<g>
</g>
<g>
</g>
<g>
</g>
<g>
</g>
<g>
</g>
<g>
</g>
<g>
</g>
<g>
</g>
<g>
</g>
<g>
</g>
<g>
</g>
<g>
</g>
<g>
</g>
</svg>
