<?xml version="1.0" encoding="iso-8859-1"?>
<!-- Generator: Adobe Illustrator 18.0.0, SVG Export Plug-In . SVG Version: 6.00 Build 0)  -->
<!DOCTYPE svg PUBLIC "-//W3C//DTD SVG 1.1//EN" "http://www.w3.org/Graphics/SVG/1.1/DTD/svg11.dtd">
<svg version="1.1" id="Capa_1" xmlns="http://www.w3.org/2000/svg" xmlns:xlink="http://www.w3.org/1999/xlink" x="0px" y="0px"
	 viewBox="0 0 297.707 297.707" style="enable-background:new 0 0 297.707 297.707;" xml:space="preserve">
<g>
	<path d="M110.733,110.44c-2.876,0-5.667-0.591-8.297-1.758c-6.398-2.839-10.854-8.663-11.922-15.581L82.46,40.884
		c-4.777-0.237-9.601,0.45-14.194,2.094c-0.001,0-0.002,0.001-0.004,0.001C56.787,47.08,48.267,56.844,45.74,68.767L0.138,283.93
		c-0.351,1.658-0.027,3.388,0.901,4.806c0.928,1.419,2.384,2.408,4.044,2.75l28.506,5.868c3.349,0.69,6.645-1.39,7.465-4.71
		l35.81-145.002l-0.549,133.803c-0.007,1.693,0.661,3.319,1.855,4.519c1.195,1.2,2.818,1.874,4.511,1.874h58.672V94.306
		l-19.364,12.76C118.638,109.273,114.746,110.44,110.733,110.44z"/>
	<path d="M297.568,283.93L251.967,68.768c-2.524-11.909-11.06-21.692-22.523-25.789l-0.003-0.001
		c-4.594-1.645-9.42-2.332-14.199-2.094l-8.046,52.215c-1.066,6.918-5.522,12.743-11.92,15.583c-2.63,1.167-5.422,1.759-8.298,1.759
		c-4.013,0-7.905-1.167-11.255-3.374l-19.368-12.758V287.84h58.788c1.694,0,3.317-0.675,4.512-1.875
		c1.195-1.2,1.862-2.827,1.855-4.521l-0.595-133.682l35.74,144.881c0.819,3.321,4.115,5.401,7.466,4.711l28.504-5.868
		c1.66-0.342,3.116-1.331,4.044-2.75C297.595,287.318,297.92,285.588,297.568,283.93z"/>
	<path d="M186.976,95.44c0.751,0,1.506-0.155,2.214-0.469c1.699-0.754,2.897-2.321,3.18-4.157l8.699-56.447
		c2.179-14.143-6.722-27.653-20.588-31.19c-0.573-0.146-1.148-0.275-1.724-0.384c-8.592-1.626-18.862-2.573-29.902-2.573
		c-11.047,0-21.325,0.948-29.922,2.576c-0.755,0.143-1.511,0.322-2.265,0.533c-13.611,3.796-22.181,17.129-20.026,31.094
		l8.698,56.391c0.284,1.837,1.482,3.403,3.181,4.157c0.708,0.314,1.462,0.469,2.213,0.469c1.052,0,2.098-0.304,3.004-0.9
		l35.113-23.137l35.124,23.137C184.879,95.137,185.925,95.44,186.976,95.44z M173.988,38.943l-25.151,29.292l-25.143-29.292
		c-0.769-0.896-0.979-2.143-0.547-3.241c0.432-1.098,1.436-1.869,2.609-1.999c5.583-0.621,11.931-1.024,18.725-1.146
		c1.441-0.026,2.896-0.043,4.374-0.043c1.468,0,2.913,0.017,4.346,0.043c6.788,0.121,13.138,0.524,18.726,1.145
		c1.174,0.131,2.179,0.9,2.612,1.999C174.971,36.801,174.758,38.047,173.988,38.943z"/>
</g>
<g>
</g>
<g>
</g>
<g>
</g>
<g>
</g>
<g>
</g>
<g>
</g>
<g>
</g>
<g>
</g>
<g>
</g>
<g>
</g>
<g>
</g>
<g>
</g>
<g>
</g>
<g>
</g>
<g>
</g>
</svg>
