<svg id="Capa_1" enable-background="new 0 0 512 512" height="512" viewBox="0 0 512 512" width="512" xmlns="http://www.w3.org/2000/svg"><g><path d="m326.38 298c0-22.126 6.661-43.39 19.262-61.493 10.292-14.784 23.922-26.625 39.812-34.671v-67.873h33.729l-.001-70.182-22.384-24.009-33.902 25.671-35.639-26.987-35.639 26.987-35.638-26.987-35.635 26.988-35.633-26.987-35.629 26.987-33.897-25.67-22.376 24.006v161.366c6.529-3.006 13.783-4.695 21.429-4.695h46.044v46.044c0 16.761-8.062 31.671-20.509 41.066 27.709 19.53 45.846 51.772 45.846 88.174 0 30.552-12.776 58.174-33.264 77.81h174.024z"/><path d="m92.81 271.88v16.044h16.044c11.816 0 21.429-9.613 21.429-21.429v-16.044h-16.044c-11.816 0-21.429 9.613-21.429 21.429z"/><path d="m356.38 346.106h155.62v48.719h-155.62z"/><path d="m462.47 225.514-9.543-3.727v-57.824h-37.473v57.824l-9.543 3.727c-30.088 11.75-49.53 40.203-49.53 72.486v18.106h155.619v-18.106c0-32.283-19.441-60.735-49.53-72.486z"/><path d="m356.38 424.825h155.62v48.719h-155.62z"/><circle cx="77.81" cy="395.734" r="77.81"/></g></svg>