<svg id="Capa_1" enable-background="new 0 0 512 512" height="512" viewBox="0 0 512 512" width="512" xmlns="http://www.w3.org/2000/svg"><g><path d="m427.569 162.901c-3.877-40.909-38.425-73.017-80.332-73.017-8.211 0-16.243 1.218-23.904 3.591-1.522-51.803-44.138-93.475-96.302-93.475-53.124 0-96.344 43.22-96.344 96.345v6.737h-8.576c-66.486 0-120.576 54.089-120.576 120.575 0 35.248 15.437 67.928 40.826 90.379l62.489-108.234c14.879-25.773 41.53-41.16 71.291-41.16s56.412 15.387 71.293 41.159l79.923 138.432h93.346c50.065 0 90.795-40.731 90.795-90.796 0-47.754-37.06-87.015-83.929-90.536z"/><path d="m176.141 193.642c-19.276.001-36.539 9.967-46.177 26.661l-122.233 211.714c-9.638 16.694-9.638 36.628 0 53.322s26.901 26.661 46.178 26.661h244.467c19.276 0 36.539-9.967 46.178-26.661 9.638-16.694 9.638-36.628 0-53.322l-122.234-211.714c-9.639-16.694-26.902-26.661-46.179-26.661zm.002 258.017c-10.883 0-18.658-7.969-18.658-17.686 0-9.912 7.775-17.298 18.658-17.298s18.657 7.386 18.657 17.298c0 9.718-7.774 17.686-18.657 17.686zm12.05-55.783h-24.1l-6.024-88.818h36.148z"/></g></svg>