<?xml version="1.0" encoding="iso-8859-1"?>
<!-- Generator: Adobe Illustrator 16.0.0, SVG Export Plug-In . SVG Version: 6.00 Build 0)  -->
<!DOCTYPE svg PUBLIC "-//W3C//DTD SVG 1.1//EN" "http://www.w3.org/Graphics/SVG/1.1/DTD/svg11.dtd">
<svg version="1.1" id="Capa_1" xmlns="http://www.w3.org/2000/svg" xmlns:xlink="http://www.w3.org/1999/xlink" x="0px" y="0px"
	 width="37.035px" height="37.035px" viewBox="0 0 37.035 37.035" style="enable-background:new 0 0 37.035 37.035;"
	 xml:space="preserve">
<g>
	<path d="M33.228,37.035l0.921-2.104L32.972,7.485h-7.884C24.133,3.067,21.695,0,18.773,0c-2.925,0-5.356,3.067-6.315,7.485H4.794
		L2.887,35.518l1.231,1.518H33.228z M22.885,11.692c0,0.73,0.589,1.32,1.316,1.32c0.73,0,1.321-0.59,1.321-1.32
		c0-0.211-0.004-0.424-0.008-0.633c0.474,0.379,0.778,0.959,0.778,1.609c0,1.137-0.92,2.057-2.055,2.057
		c-1.136,0-2.056-0.92-2.056-2.057c0-0.607,0.269-1.154,0.688-1.529C22.879,11.321,22.885,11.507,22.885,11.692z M18.773,2.642
		c1.377,0,2.862,1.863,3.613,4.844h-7.228C15.912,4.507,17.398,2.642,18.773,2.642z M12.031,11.125
		c-0.006,0.188-0.009,0.378-0.009,0.567c0,0.73,0.593,1.32,1.321,1.32c0.73,0,1.32-0.59,1.32-1.32c0-0.207,0.006-0.412,0.012-0.617
		c0.463,0.378,0.76,0.952,0.76,1.595c0,1.136-0.92,2.056-2.057,2.056c-1.135,0-2.053-0.92-2.053-2.056
		C11.328,12.054,11.6,11.5,12.031,11.125z"/>
</g>
<g>
</g>
<g>
</g>
<g>
</g>
<g>
</g>
<g>
</g>
<g>
</g>
<g>
</g>
<g>
</g>
<g>
</g>
<g>
</g>
<g>
</g>
<g>
</g>
<g>
</g>
<g>
</g>
<g>
</g>
</svg>
