<svg id="Capa_1" enable-background="new 0 0 512 512" height="512" viewBox="0 0 512 512" width="512" xmlns="http://www.w3.org/2000/svg"><g><path d="m360.203 181.718c-3.717 46.24-23.809 87.768-54.203 119.282h10c8.291 0 15 6.709 15 15s-6.709 15-15 15h-47.688c-25.631 15.947-54.868 26.653-86.594 29.203 7.216 84.462 77.951 151.797 164.282 151.797 91.126 0 166-74.874 166-166 0-86.332-67.335-157.066-151.797-164.282zm15.797 119.282h30c8.291 0 15 6.709 15 15s-6.709 15-15 15h-30c-8.291 0-15-6.709-15-15s6.709-15 15-15zm47.051 116.162c-6.161 5.532-15.643 5.026-21.182-1.143-28.506-31.816-83.232-31.816-111.738 0-5.537 6.167-14.985 6.709-21.182 1.143-6.167-5.522-6.68-15-1.143-21.182 19.923-22.221 48.428-34.98 78.194-34.98s58.271 12.759 78.193 34.98c5.537 6.182 5.025 15.66-1.142 21.182z"/><path d="m166 241c36.226 0 66.519-25.811 73.491-60h-146.982c6.972 34.189 37.265 60 73.491 60z"/><path d="m166 331c90.981 0 165-74.019 165-165s-74.019-166-165-166-166 75.019-166 166 75.019 165 166 165zm30-240h30c8.291 0 15 6.709 15 15s-6.709 15-15 15h-30c-8.291 0-15-6.709-15-15s6.709-15 15-15zm-90 0h30c8.291 0 15 6.709 15 15s-6.709 15-15 15h-30c-8.291 0-15-6.709-15-15s6.709-15 15-15zm-30 60h180c8.291 0 15 6.709 15 15 0 57.891-47.109 105-105 105s-105-47.109-105-105c0-8.291 6.709-15 15-15z"/></g></svg>