<?xml version="1.0" encoding="iso-8859-1"?>
<!-- Generator: Adobe Illustrator 16.0.0, SVG Export Plug-In . SVG Version: 6.00 Build 0)  -->
<!DOCTYPE svg PUBLIC "-//W3C//DTD SVG 1.1//EN" "http://www.w3.org/Graphics/SVG/1.1/DTD/svg11.dtd">
<svg version="1.1" id="Capa_1" xmlns="http://www.w3.org/2000/svg" xmlns:xlink="http://www.w3.org/1999/xlink" x="0px" y="0px"
	 width="310.42px" height="310.42px" viewBox="0 0 310.42 310.42" style="enable-background:new 0 0 310.42 310.42;"
	 xml:space="preserve">
<g>
	<g>
		<path d="M273.588,214.966c49.11-49.111,49.11-129.021-0.001-178.132c-49.11-49.111-129.02-49.111-178.131,0
			C53.793,78.498,47.483,140.463,76.51,188.851c0,0,2.085,3.496-0.731,6.312c-16.065,16.064-64.263,64.263-64.263,64.263
			c-12.791,12.79-15.837,30.675-4.493,42.019l1.953,1.951c11.343,11.345,29.229,8.301,42.019-4.49c0,0,48.096-48.096,64.128-64.129
			c2.951-2.95,6.448-0.865,6.448-0.865C169.958,262.938,231.924,256.63,273.588,214.966z M118.712,191.711
			c-36.288-36.288-36.287-95.332,0-131.62c36.288-36.287,95.333-36.288,131.619,0c36.288,36.287,36.288,95.332,0,131.62
			C214.044,227.998,155,227.998,118.712,191.711z"/>
		<path d="M232.896,147.885l-19.928-19.928c0,0-1.756-2.057,0.189-4.002c4.935-4.935,19.739-19.74,19.739-19.74
			c3.89-3.889,3.89-10.253,0-14.142l-11.72-11.72c-3.889-3.889-10.253-3.889-14.142,0c0,0-14.706,14.706-19.608,19.608
			c-2.077,2.077-4.245,0.209-4.245,0.209l-19.817-19.817c-3.889-3.889-10.252-3.889-14.141,0l-11.72,11.72
			c-3.889,3.889-3.889,10.253,0,14.142l19.669,19.67c0,0,2.103,2.227,0.041,4.29c-4.928,4.928-19.71,19.71-19.71,19.71
			c-3.889,3.889-3.889,10.253,0,14.142l11.72,11.722c3.889,3.889,10.252,3.889,14.141,0c0,0,14.872-14.872,19.829-19.829
			c1.9-1.9,4.179,0.166,4.179,0.166l19.663,19.663c3.889,3.889,10.253,3.889,14.142,0l11.721-11.722
			C236.786,158.138,236.786,151.774,232.896,147.885z"/>
	</g>
</g>
<g>
</g>
<g>
</g>
<g>
</g>
<g>
</g>
<g>
</g>
<g>
</g>
<g>
</g>
<g>
</g>
<g>
</g>
<g>
</g>
<g>
</g>
<g>
</g>
<g>
</g>
<g>
</g>
<g>
</g>
</svg>
